/* XPM */
static char *result[] = {
/* columns rows colors chars-per-pixel */
"48 32 4 1 ",
"  c #B1D354",
". c #8ECD65",
"X c #C3D657",
"o c #CBE36F",
/* pixels */
"XXXXXXXXXXXXXXXXXXXXXXXXXXXXXXXXXXXXXXXXXXXXXXXX",
"XXXXXXXXXXXXXXXXXXXXXXXXXXXXXXXXXXXXXXXXXXXXXXXX",
"XXXXXXXXXXXXXXXXXXXXXXXXXXXXXXXXXXXXXXXXXXXXXXXX",
"XXXXXXXXXXXXXXXXXXXXXXXXXXXXXXXXXXXXXXXXXXXXXXXX",
"XXXXXXXXXXXXXXXXXXXXXXXXXXXXXXXXXXXXXXXXXXXXXXXX",
"XXXXXXXXXXXXXXXXXXXXXXooX  XooXXXXooX  XooXXXXXX",
"XXXXXXXXXXXXXXXXXXXXXXXooX ooXXXXXXoo XooXXXXXXX",
"XXXXXXXXXXXXXXXXXXXXX  oooXoXXXXXXXXoXooo  XXXXX",
"XXXXXXXXXXXXXXXXXXXXXX  oXXXXXXXXXXXXXXo  XXXXXX",
"XXXXXXXXXXXXXXXXXXXXXooXXXXXXXXXXXXXXXXXXooXXXXX",
"XXXXXXXXXXXXXXXXXXXXX ooXXXXXXXXXXXXXXXXoo XXXXX",
"XXXXXXXXXXXXXXXXXXXXXXoXXXXXXXXXXXXXXXXXXoXXXXXX",
"XXXXXXXXXXXXXXXXXXXXXXXXXXXXXXXXXXXXXXXXXXXXXXXX",
"XXXXXXXXXXXXXXXXXXXXXXXXXXXXXXXXXXXXXXXXXXXXXXXX",
"XXXXXXXXXXXXXXXXXXXXXXXXXXXXXXXXXXXXXXXXXXXXXXXX",
"XXXXXXXXXXXXXXXXXXXXXXXXXXXXXXXXXXXXXXXXXXXXXXXX",
"                                                ",
"                                                ",
"                                                ",
"                                                ",
"                                                ",
"                    oo    oo        oo    oo    ",
"                     oo  oo.        .oo  oo     ",
"                    .ooo o.          .o ooo.    ",
"                    ..o                  o..    ",
"                   oo                      oo   ",
"                  . oo                    oo .  ",
"                  ..o                      o..  ",
"                                                ",
"                                                ",
"                                                ",
"                                                "
};
