/* XPM */
static char *result[] = {
/* columns rows colors chars-per-pixel */
"64 64 110 2 ",
"   c #759145",
".  c #749044",
"X  c #759144",
"o  c #739043",
"O  c #728E43",
"+  c #759044",
"@  c #708E42",
"#  c #6F8E43",
"$  c #749045",
"%  c #6B8C42",
"&  c #6E8D43",
"*  c #688B42",
"=  c #6C8D43",
"-  c #759045",
";  c #799547",
":  c #769245",
">  c #728F45",
",  c #668B43",
"<  c #6C8D44",
"1  c #6F8B41",
"2  c #56712D",
"3  c #526D2A",
"4  c #5D7833",
"5  c #67823B",
"6  c #708B42",
"7  c #85A151",
"8  c #7B9748",
"9  c #749043",
"0  c #718F45",
"q  c #688B43",
"w  c #749145",
"e  c #67823A",
"r  c #5B7632",
"t  c #5F7A35",
"y  c #647F3A",
"u  c #6A853E",
"i  c #718C43",
"p  c #91AE5A",
"a  c #83A04F",
"s  c #6E8D44",
"d  c #6D8D44",
"f  c #769145",
"g  c #759146",
"h  c #9BB862",
"j  c #8CA955",
"k  c #749144",
"l  c #738F44",
"z  c #718E44",
"x  c #91AE5B",
"c  c #92AF5B",
"v  c #779346",
"b  c #809C4D",
"n  c #718D41",
"m  c #6E8A40",
"M  c #5E7A33",
"N  c #6A863C",
"B  c #658037",
"V  c #4C6724",
"C  c #617C36",
"Z  c #516C28",
"A  c #5B7631",
"S  c #749146",
"D  c #738F43",
"F  c #668239",
"G  c #738E44",
"H  c #759046",
"J  c #749046",
"K  c #6C883E",
"L  c #7C984A",
"P  c #7C9849",
"I  c #607B35",
"U  c #69853D",
"Y  c #85A150",
"T  c #86A251",
"R  c #658039",
"E  c #516C29",
"W  c #728E44",
"Q  c #8CA856",
"!  c #90AC58",
"~  c #476221",
"^  c #9AB861",
"/  c #67833A",
"(  c #5E7933",
")  c #728D44",
"_  c #7E9A4B",
"`  c #789446",
"'  c #789447",
"]  c #779347",
"[  c #819D4F",
"{  c #86A252",
"}  c #97B45F",
"|  c #7D9949",
" . c #9AB761",
".. c #9CB963",
"X. c #7F9B4B",
"o. c #739045",
"O. c #799549",
"+. c #789448",
"@. c #708E44",
"#. c #6F8E44",
"$. c #8DA959",
"%. c #829E4F",
"&. c #6D8C43",
"*. c #9FBC66",
"=. c #90AD59",
"-. c #799447",
";. c #84A050",
":. c #99B761",
">. c #88A452",
",. c white",
/* pixels */
"                                                                                                                                ",
"                                                                                                                                ",
"                                                                                                                                ",
"                                                                                                                                ",
"                                  . .                                                                                           ",
"                                X o O   X                                                                                       ",
"                                + @ #   X                                                                                       ",
"      $                         . % &   X                                                                 X     X X             ",
"    X . . X                     . * = - X                                                         .   X X                       ",
"  $ X ; : . X               X   > , <   X                                                           1 2 3 4 5 6 $               ",
"  $ . 7 8 9 X               X   0 q < w X                                                         . e r t y u i $               ",
"  $ + p a 9 X                   $ s d - X                                                         .     f     g g               ",
"  .   h j 9 .                 k - l z - w                                                           k . . k                     ",
"  .   x c 9 .                     + . .                 $                                                                       ",
"    . v b X .                                             . n .                                                                 ",
"      . . X X                                     X X X m M N +                                                                 ",
"        X X X                                     X X B V C $     X                                                             ",
"                                                  X 9 Z A . g S                                                                 ",
"                                                    D F G g H g                                                                 ",
"                                                    .     w       X                                                             ",
"                                                        X X X X X                                                               ",
"                                                                                                                                ",
"                                                                                                                                ",
"                                                                                                                                ",
"                                                                                                                                ",
"                                                                                                                                ",
"                                                                                                                                ",
"                                                                                                                                ",
"                                                                                                                                ",
"                                                                                                                                ",
"                                                                                                                                ",
"                                                                                                                                ",
"                                                                                                                                ",
"                                                                                                                                ",
"                                                                                                                                ",
"                                              X X X X                                                       w                   ",
"                                                      X                                                     + . X X X           ",
"                                          . .   J     X                                                   . : X 9 . X           ",
"                                          l K $ g     X                                                   . L P 9 . X           ",
"                                            I U g $   X                                                   . Y T 9 X X           ",
"                                            R E W g   X                                                   . Q ! 9 .             ",
"                                            1 ~ t H - X                                                 $ . p ^ X   -           ",
"                                            . / ( )   X                                                   . _ p ` X -           ",
"                      . . .                 X   $ $ - X                                                     + ' : X -           ",
"                    .   ] . . X X             X                                                           w + . . -             ",
"                    .   [ { : . k X                                                                                             ",
"                      . v x } | 9 .                                                                                             ",
"                        . ;  ...X.. $                                                                                           ",
"                          . v P ' X $                                                                                           ",
"                            . . . $                                                                                             ",
"                                                                                                                                ",
"                                                                                                                                ",
"  . .                                                               X X                                                         ",
".     $                                                           . . $ k                                                       ",
"w o.$                                                         k . O.+.$ - w                                                     ",
"@.#.$   k                                                       . O.$.%.. .                                                     ",
"&.> $ -                                                         $ . b *.=.-.. .                                                 ",
"l l . . .                                                         $ . ;.:.>.  .                                                 ",
"9 l D D .                                                           $ . X : X .                                                 ",
"D D D D .                                                             . . . . X                                                 ",
". . . . .                                                                                                                       ",
". . . . .                                                                                                                       ",
"                                                                                                                                ",
"                                                                                                                                "
};
