/* XPM */
static char *result[] = {
/* columns rows colors chars-per-pixel */
"64 64 177 2 ",
"   c #0D060F",
".  c #0D0C12",
"X  c #110D12",
"o  c #151415",
"O  c #181717",
"+  c #171817",
"@  c #181817",
"#  c #181918",
"$  c #1E251D",
"%  c #21271D",
"&  c #2D241D",
"*  c #22281D",
"=  c #1E2B21",
"-  c #232E21",
";  c #2E2A20",
":  c #302921",
">  c #263122",
",  c #2A3322",
"<  c #2B3A26",
"1  c #363D28",
"2  c #543E2A",
"3  c #2F442D",
"4  c #32472C",
"5  c #354A2E",
"6  c #3A4C2E",
"7  c #3B502F",
"8  c #365434",
"9  c #395634",
"0  c #3E5934",
"q  c #3F633B",
"w  c #484D2E",
"e  c #55422D",
"r  c #594731",
"t  c #435D35",
"y  c #4D5F36",
"u  c #555E36",
"i  c #585333",
"p  c #456036",
"a  c #42653D",
"s  c #4C6C3C",
"d  c #43683D",
"f  c #586036",
"g  c #4F703D",
"h  c #52703D",
"j  c #636F3D",
"k  c #4C7B47",
"l  c #4C7D48",
"z  c #5F7342",
"x  c #7E6E40",
"c  c #84623C",
"v  c #8B6B44",
"b  c #AB7F49",
"n  c #4E814A",
"m  c #5C8646",
"M  c #5E8847",
"N  c #52864C",
"B  c #53884D",
"V  c #5B8C4C",
"C  c #5F914D",
"Z  c #568E50",
"A  c #5B8E50",
"S  c #5E9F58",
"D  c #579051",
"F  c #638B49",
"G  c #7B8749",
"H  c #65934C",
"J  c #68934C",
"K  c #6B9A4F",
"L  c #67984E",
"P  c #73954D",
"I  c #7A964D",
"U  c #6C9D51",
"Y  c #689853",
"T  c #719E51",
"R  c #5FA15A",
"E  c #61A25A",
"W  c #6BA858",
"Q  c #76AF58",
"!  c #79A359",
"~  c #73B05A",
"^  c #6AB362",
"/  c #6EBC66",
"(  c #71B763",
")  c #74BD65",
"_  c #7BBE65",
"`  c #70BF68",
"'  c #7BC163",
"]  c #73C56A",
"[  c #7FC168",
"{  c #75CA6D",
"}  c #7ACD6D",
"|  c #7DD06E",
" . c #7AD271",
".. c #9F864B",
"X. c #84954D",
"o. c #88964D",
"O. c #89984E",
"+. c #8C9F51",
"@. c #939753",
"#. c #BE8E4F",
"$. c #B3844F",
"%. c #B98D55",
"&. c #B68A54",
"*. c #B49452",
"=. c #84AD5B",
"-. c #84B35A",
";. c #8EB45A",
":. c #9EB45A",
">. c #A3A258",
",. c #A1A057",
"<. c #8FB260",
"1. c #91B361",
"2. c #C58F52",
"3. c #C59152",
"4. c #CC9455",
"5. c #CC9658",
"6. c #CF9C5D",
"7. c #D19C5D",
"8. c #D29F60",
"9. c #D4A161",
"0. c #D9A463",
"q. c #83C461",
"w. c #8BC661",
"e. c #86C964",
"r. c #89C963",
"t. c #80C168",
"y. c #84CF6B",
"u. c #99CB64",
"i. c #99C662",
"p. c #83D36D",
"a. c #89D76C",
"s. c #8CD96D",
"d. c #89D56B",
"f. c #9FD468",
"g. c #93DE6C",
"h. c #9BDD6D",
"j. c #86DA71",
"k. c #8DDE70",
"l. c #99DC70",
"z. c #ACC762",
"x. c #A3C963",
"c. c #AACA64",
"v. c #B3C662",
"b. c #B6CA64",
"n. c #A3DE6D",
"m. c #AFDB6B",
"M. c #A6D669",
"N. c #B2DD6C",
"B. c #BBDF6D",
"V. c #BFD769",
"C. c #ADDF70",
"Z. c #96E06D",
"A. c #9CE16D",
"S. c #8FE171",
"D. c #95E471",
"F. c #9AE670",
"G. c #9CE971",
"H. c #A5E16D",
"J. c #AAE16D",
"K. c #B5E16E",
"L. c #BAE26E",
"P. c #ACE770",
"I. c #ADEA71",
"U. c #A5E670",
"Y. c #B3E670",
"T. c #BCE670",
"R. c #BEEB72",
"E. c #B2ED72",
"W. c #C3DD6C",
"Q. c #C4E26E",
"!. c #CCE36F",
"~. c #D0E36F",
"^. c #C5EC73",
"/. c #CDE972",
"(. c #D3EA72",
"). c #D4EB72",
"_. c None",
/* pixels */
"_._._._._._._._._._._._._._._._._._._._._._._._._._._._._._._._._._._._._._._._._._._._._._._._._._._._._._._._._._._._._._._._.",
"_._._._._._._._._._._._._._._._._._._._._._._._._._._._._._._._._._._._._._._._._._._._._._._._._._._._._._._._._._._._._._._._.",
"_._._._._._._._._._._._._._._._._._._._._._._._._._._._._._._._._._._._._._._._._._._._._._._._._._._._._._._._._._._._._._._._.",
"_._._._._._._._._._._._._._._._._._._._._._._._._._._._._._._._._._._._._._._._._._._._._._._._._._._._._._._._._._._._._._._._.",
"_._._._._._._._._._._._._._._._._.X X . . . . . . X . _._._._._._.. . . . . . . X . X . . . X _._._._._._._._._._._._._._._._._.",
"_._._._._._._._._._._._._._._._.@ @ @ @ @ @ @ @ + + @ @ _._._._.+ O O O @ @ O O O O O O @ + + @ _._._._._._._._._._._._._._._._.",
"_._._._._._._._._._._._._._._._.; , ; , , , , , , , , - _._._._.- , , , , , , , , , , , , , > * _._._._._._._._._._._._._._._._.",
"_._._._._._._._._._._._._._._.1 w u f f f f u y p t t 5 < _._.< 5 0 y y u u u u f u u f p t t 5 < _._._._._._._._._._._._._._._.",
"_._._._._._._._._._._._._.X & w j G X.O.O.X.X.I P J m s 4 $ * 4 s m J P I X.X.o.o.X.X.I J J m s 5 $ X _._._._._._._._._._._._._.",
"_._._._._._._._._._._._.. # , u G :.v.b.b.v.z.x.i.w.Q m 7 , , 0 m Q w.u.x.z.v.v.v.v.z.x.u.w.Q M t , + X _._._._._._._._._._._._.",
"_._._._._._._._._._._._.* * 6 j +.b.!.).(.!.Q.T.P.H.w.K s 6 6 s K r.h.K.L.Q.!.!.!.!.Q.L.Y.H.r.K s 6 , * _._._._._._._._._._._._.",
"_._._._._._._._._._._.< 5 t h I :.V.(.).).)././.^.Y.M.-.F h h F -.f.Y.R.^./.(.).(.(.(.^.R.Y.M.-.J g t 5 < _._._._._._._._._._._.",
"_._._._._._._._._.+ > 5 s F T ;.c.Q.~.).)./././.^.Q.J.i.-.T T -.i.m.T.^./././.(./.(./.^.^.L.m.u.-.K M s 5 - @ _._._._._._._._._.",
"_._._._._._._._.. + > 0 m Q w.M.N.Q.!.!.!.!.!.!.Q.Q.B.m.u.w.r.u.M.L.Q.!.Q.!.!.!.!.!.!.!.!.Q.L.m.M.w.Q m 0 > @ X _._._._._._._._.",
"_._._._._._._._.X + , q H q.h.J.L.L.Q.Q.Q.Q.Q.Q.Q.Q.L.K.H.Z.A.J.L.Q.!.!.!.!.!.!.!.!.!.!.!.!.Q.T.P.A.q.J t , O . _._._._._._._._.",
"_._._._._._._._.. + , p L r.A.I.P.K.K.K.L.K.K.L.K.L.K.J.H.G.H.P.L.!.!.!.!.!.!.!.!.!.!.!.!.!.!.R.E.H.e.H t - o   _._._._._._._._.",
"_._._._._._._._.. + , p L r.A.U.U.U.J.J.H.J.J.J.J.J.J.H.A.A.H.J.L.!.!.!.~.~.!.!.!.!.!.~.~.!.Q.T.E.H.e.H 0 * o   _._._._._._._._.",
"_._._._._._._._.. + > t H q.Z.F.G.A.h.A.A.h.h.A.h.H.A.Z.Z.Z.A.J.K.Q.!.!.!.Q.!.Q.!.!.!.!.!.!.Q.T.I.A.q.H p , # . _._._._._._._._.",
"_._._._._._._._.. O > t H -.Z.F.G.A.A.A.h.A.A.A.Z.Z.Z.g.Z.Z.A.n.K.L.Q.Q.Q.Q.Q.Q.Q.Q.Q.Q.Q.Q.L.K.P.g.q.L g 5 > * _._._._._._._._.",
"_._._._._._._._.  O * 9 V ) s.Z.H.H.H.J.J.H.H.H.Z.Z.g.Z.Z.Z.Z.H.H.K.L.N.L.K.L.K.K.K.K.K.L.K.K.J.A.s.e.W M g t 6 < _._._._._._._.",
"_._._._._._._._.  o $ 8 N ( y.l.H.m.K.L.L.K.K.J.h.Z.g.g.Z.g.Z.A.H.H.J.H.H.J.H.J.H.J.H.J.J.J.n.h.s.p.' ) ~ K F g 7 > + _._._._._.",
"_._._._._._._._.o + > 8 N ( y.l.J.L.Q.!.Q.Q.L.K.J.A.Z.Z.g.g.A.Z.Z.A.h.A.A.H.h.A.A.A.A.A.A.H.h.s.p.y.} y.y.q.Q M t > + X _._._._.",
"_._._._._._._._.* , 4 d A ^ y.l.m.T.!.!.!.!.Q.L.J.n.Z.Z.Z.Z.h.Z.Z.h.H.A.A.h.A.h.A.A.A.A.Z.Z.g.d.p.p.| j.k.g.q.H t , + . _._._._.",
"_._._._._._._.1 6 t s V W ' d.n.K.Q.~.~.~.!.!.L.K.K.J.H.H.Z.Z.Z.H.H.H.J.H.J.J.J.J.n.H.H.Z.g.g.s.p.p.p.k.D.Z.e.K p , @ X _._._._.",
"_._._._._.+ > 6 s F U ~ ' y.g.n.K.Q.!.~.!.!.!.W.Q.L.K.J.H.Z.h.H.J.K.L.K.L.K.K.K.K.K.K.J.n.Z.g.g.s.s.s.D.D.Z.e.J p > + . _._._._.",
"_._._._.. + > t M Q q.d.s.s.h.n.K.Q.!.!.!.!.!.!.Q.Q.L.K.H.A.A.H.K.L.Q.Q.Q.Q.Q.Q.Q.Q.L.K.J.Z.Z.g.Z.s.Z.Z.F.Z.q.J t , + X _._._._.",
"_._._._.. + , t H q.g.A.Z.Z.A.H.K.B.Q.Q.Q.Q.Q.Q.Q.Q.L.K.H.h.A.J.K.Q.Q.!.!.!.!.!.!.!.Q.K.J.h.Z.g.Z.g.Z.Z.F.Z.q.J p , + . _._._._.",
"_._._._.. + , p K r.G.G.G.A.A.H.C.K.K.B.L.K.L.L.L.L.K.J.H.A.A.J.K.Q.~.~.~.!.~.!.~.!.Q.L.J.A.Z.Z.Z.Z.Z.G.G.Z.q.H t > + . _._._._.",
"_._._._.. @ , p L r.Z.G.G.Z.A.A.H.H.J.J.J.H.J.J.J.J.H.H.A.A.A.J.L.Q.!.~.~.!.!.~.!.!.!.L.J.A.Z.Z.Z.Z.Z.G.G.Z.q.J t > O . _._._._.",
"_._._._.. + > t H q.Z.F.G.Z.Z.Z.A.h.A.A.h.A.A.A.A.h.A.A.g.g.h.J.L.Q.Q.!.!.!.!.!.!.!.Q.K.H.A.Z.Z.Z.g.Z.Z.F.g.q.J t , O . _._._._.",
"_._._._.X O > t H q.s.D.Z.Z.s.Z.g.Z.Z.Z.A.Z.Z.g.A.Z.g.Z.g.g.h.n.K.L.Q.Q.Q.Q.Q.Q.Q.Q.L.K.H.A.Z.Z.Z.k.Z.Z.D.g.q.H t , + X _._._._.",
"_._._._.X O > t C ' s.Z.S.a.s.s.s.Z.Z.Z.Z.Z.Z.Z.Z.g.Z.s.s.s.s.h.n.K.L.L.L.K.L.L.L.L.K.J.H.h.Z.s.s.s.a.k.S.a.' C 0 > + X _._._._.",
"_._._._.. + > 0 V ) j.j.j.p.p.a.s.Z.Z.Z.Z.A.g.g.Z.g.l.s.p.p.d.s.f.H.J.J.J.J.J.J.J.J.J.H.A.A.g.s.a.p.p.a.j.j.) C 0 > + X _._._._.",
"_._._._.X + > 8 N ^ {  .| } } p.a.s.Z.Z.Z.g.g.h.Z.g.g.s.p.| y.p.g.g.A.A.A.A.A.n.A.h.A.A.A.g.g.a.p.| }  .| { ^ N 9 > + X _._._._.",
"_._._._.X + - 8 k E ^ ` ] { { p.a.s.g.g.g.g.g.g.g.g.s.p.y. .} p.d.s.g.g.Z.s.g.g.g.g.g.g.g.g.s.j.} } { ] ` ^ R l 8 - + X _._._._.",
"_._._._._.+ - 4 a l Z S ^ ` { | p.a.a.a.a.a.j.j.a.a.j.y.} { { } | d.d.d.a.a.d.d.a.a.p.a.a.p.a.p.p.{ ` ^ R D l q 4 = + _._._._._.",
"_._._._._._._.< 4 8 a n S ^ { | | | p.p.y.y.y.p.p.p.| | { { { { } } | p.| | p.| y.| p.p.y.y.y.| } { / S n q 8 3 < _._._._._._._.",
"_._._._._._._._.% - 3 q Z ^ {  .| } } } } } } } } } { { { { { { ' } } } | } } } { } { } } {  .} } { ^ Z q 3 > $ _._._._._._._._.",
"_._._._._._._._.X + > 8 N ^ {  .} { { { { { { { { { { { { { { { | { { { { { { { { { { { { { {  . .{ ^ N 9 > + . _._._._._._._._.",
"_._._._._._._._.  o - 8 Z ^ {  . .{ { { { { { { { { { { { { { { { { { ] { { { { { { { { { { ]  . .} ^ N 8 - o   _._._._._._._._.",
"_._._._._._._._.  o - 9 B ^  . . .{ { { { ] { { { { { { { { { { { { { { { { { { { { { { { { {  . .{ ^ N 9 - o   _._._._._._._._.",
"_._._._._._._._.X O - 8 n ^ { { { { { { { { { { { { { { { { { { { { ] { { { { { { { { { { { {  . .] ^ N 8 - O X _._._._._._._._.",
"_._._._._._._._.X + - 8 k S ^ ` ] ] { { { { { { { { { { { { { { { { { { { { { { { { { { { { ] ] ] ^ S k 8 - + X _._._._._._._._.",
"_._._._._._._._._.O - 3 q k Z E ^ {  . . .} } {  .{ { { { { ] { { { { { { { { { { {  . . . .] ^ E Z l q 3 - + _._._._._._._._._.",
"_._._._._._._._._._._.< 3 5 k l E `  . . . . .{ { { { { { { { { { { { { { { { {  . . . . . ./ R n a 8 3 < _._._._._._._._._._._.",
"_._._._._._._._._._._._.= - < a Z ^ { { { { { { { } { { { } { { { { { { { { { { { { { {  .{ ^ Z a 3 - $ _._._._._._._._._._._._.",
"_._._._._._._._._._._._.X O - 8 k S ^ ^ ^ ^ ^ ( ) _ [ [ [ [ t.t.' [ [ [ } [ _ _ ^ ^ ^ ^ ^ ^ S k 8 - # X _._._._._._._._._._._._.",
"_._._._._._._._._._._._._.X = 3 q k N B N Z A Y ! -.<.1.<.<.1.1.<.<.<.<.;.<.=.! Y A B N B N k q 3 - X _._._._._._._._._._._._._.",
"_._._._._._._._._._._._._._._.< 4 8 8 8 8 9 p z G @.,.>.>.>.>.@.,.,.>.>.>.@.@.G z a 8 8 9 8 8 4 , _._._._._._._._._._._._._._._.",
"_._._._._._._._._._._._._._._._.- > > = = > 1 i x ..*.*.*.*.*.*.*.*.*.*.*.*...x i 1 > = = - - - _._._._._._._._._._._._._._._._.",
"_._._._._._._._._._._._._._._._.+ + o o o + - 2 c b %.3.3.#.#.2.#.#.%.3.5.#.b c e ; + o o + + + _._._._._._._._._._._._._._._._.",
"_._._._._._._._._._._._._._._._._.. . . . o & 2 c b 2.4.4.3.2.2.4.3.4.4.4.3.b c 2 & o . . . X _._._._._._._._._._._._._._._._._.",
"_._._._._._._._._._._._._._._._._._._.. . X : r c $.5.7.7.5.5.5.5.4.5.7.7.5.$.c 2 & X . . _._._._._._._._._._._._._._._._._._._.",
"_._._._._._._._._._._._._._._._._._._._.. o ; r v %.7.8.8.7.8.7.6.6.7.9.9.6.&.v r ; O . _._._._._._._._._._._._._._._._._._._._.",
"_._._._._._._._._._._._._._._._._._._._.. + : r v %.8.0.0.8.8.8.9.7.9.0.0.8.%.v r ; O . _._._._._._._._._._._._._._._._._._._._.",
"_._._._._._._._._._._._._._._._._._._._.. + : r v %.8.0.0.9.9.8.9.9.9.0.0.9.%.v r ; + . _._._._._._._._._._._._._._._._._._._._.",
"_._._._._._._._._._._._._._._._._._._._.. # : r v %.9.0.0.9.9.9.9.9.9.9.0.9.%.v r : # . _._._._._._._._._._._._._._._._._._._._.",
"_._._._._._._._._._._._._._._._._._._._.. # : r v %.8.0.0.6.9.9.8.9.9.0.0.9.%.v r : O . _._._._._._._._._._._._._._._._._._._._.",
"_._._._._._._._._._._._._._._._._._._._.. # ; r v %.8.0.0.8.9.9.9.9.8.9.0.8.%.v r : + . _._._._._._._._._._._._._._._._._._._._.",
"_._._._._._._._._._._._._._._._._._._._._.# : r v %.6.0.0.9.9.9.8.9.9.9.0.9.%.v r : # _._._._._._._._._._._._._._._._._._._._._.",
"_._._._._._._._._._._._._._._._._._._._._._._._._._._._._._._._._._._._._._._._._._._._._._._._._._._._._._._._._._._._._._._._.",
"_._._._._._._._._._._._._._._._._._._._._._._._._._._._._._._._._._._._._._._._._._._._._._._._._._._._._._._._._._._._._._._._.",
"_._._._._._._._._._._._._._._._._._._._._._._._._._._._._._._._._._._._._._._._._._._._._._._._._._._._._._._._._._._._._._._._.",
"_._._._._._._._._._._._._._._._._._._._._._._._._._._._._._._._._._._._._._._._._._._._._._._._._._._._._._._._._._._._._._._._."
};
