/* XPM */
static char *result[] = {
/* columns rows colors chars-per-pixel */
"64 64 231 2 ",
"   c #0D0E1B",
".  c #0D0E13",
"X  c #0E111B",
"o  c #0E1116",
"O  c #101317",
"+  c #14161A",
"@  c #171819",
"#  c #1B1B19",
"$  c #231E17",
"%  c #2C2316",
"&  c #25211C",
"*  c #2A2419",
"=  c #2A2816",
"-  c #312615",
";  c #352C16",
":  c #3A2D18",
">  c #373216",
",  c #383819",
"<  c #342922",
"1  c #3B2F24",
"2  c #3B3023",
"3  c #383729",
"4  c #57380D",
"5  c #482E11",
"6  c #483C12",
"7  c #453615",
"8  c #543A11",
"9  c #5B3F11",
"0  c #543616",
"q  c #47310F",
"w  c #673D1E",
"e  c #723E10",
"r  c #463227",
"t  c #4C3524",
"y  c #5B3E2B",
"u  c #543B21",
"i  c #673C24",
"p  c #5D470C",
"a  c #5C471A",
"s  c #61470B",
"d  c #77480A",
"f  c #65520D",
"g  c #755B0A",
"h  c #694D1A",
"j  c #78461A",
"k  c #655513",
"l  c #79551B",
"z  c #696712",
"x  c #796411",
"c  c #5B452C",
"v  c #5E4827",
"b  c #6B462C",
"n  c #6A4427",
"m  c #714A2A",
"M  c #764C27",
"N  c #7F5D36",
"B  c #7E5C38",
"V  c #665735",
"C  c #6B6C2B",
"Z  c #6A6847",
"A  c #8A480A",
"S  c #984A05",
"D  c #875608",
"F  c #995905",
"G  c #864915",
"H  c #8B5817",
"J  c #965915",
"K  c #A35203",
"L  c #AC5401",
"P  c #AA5C05",
"I  c #B45600",
"U  c #B45C01",
"Y  c #B85D00",
"T  c #A24F05",
"R  c #976805",
"E  c #997A07",
"W  c #9A6415",
"Q  c #8E7015",
"!  c #A86808",
"~  c #BE6300",
"^  c #B76905",
"/  c #B8720E",
"(  c #B77306",
")  c #A26519",
"_  c #A66512",
"`  c #B17918",
"'  c #885724",
"]  c #855524",
"[  c #8F6E29",
"{  c #B3792F",
"}  c #C56B02",
"|  c #CA7500",
" . c #C47A04",
".. c #C97802",
"X. c #D47B00",
"o. c #C47E24",
"O. c #9F7341",
"+. c #AA7944",
"@. c #9C8A0B",
"#. c #938211",
"$. c #A78501",
"%. c #B2900F",
"&. c #B2A80A",
"*. c #B28D2B",
"=. c #A7A929",
"-. c #C98605",
";. c #D18408",
":. c #D18601",
">. c #D59802",
",. c #D09610",
"<. c #CEA504",
"1. c #CAA00D",
"2. c #D5AA05",
"3. c #D3B50D",
"4. c #E7B91A",
"5. c #E5B30B",
"6. c #DC9B27",
"7. c #D79527",
"8. c #C99A37",
"9. c #C88E28",
"0. c #E19E27",
"q. c #DDB637",
"w. c #D4A92E",
"e. c #E3A027",
"r. c #D9D306",
"t. c #EDC501",
"y. c #EDC20E",
"u. c #E9CB04",
"i. c #F0CC08",
"p. c #E8D707",
"a. c #F1D400",
"s. c #F9DC01",
"d. c #F8DE0F",
"f. c #E9C318",
"g. c #F5CD13",
"h. c #E9E402",
"j. c #F5E300",
"k. c #FAE400",
"l. c #F8EB05",
"z. c #FAF400",
"x. c #FCFD0E",
"c. c #F9F30A",
"v. c #F7E918",
"b. c #FAF914",
"n. c #DEDE2F",
"m. c #F7DA29",
"M. c #F0CC34",
"N. c #F9D839",
"B. c #E7CC30",
"V. c #FDFC2C",
"C. c #FBEA37",
"Z. c #FFFF34",
"A. c #FBF434",
"S. c #B6834B",
"D. c #B9854E",
"F. c #BE8C43",
"G. c #BD8A53",
"H. c #A08D58",
"J. c #A7A852",
"K. c #A5A16E",
"L. c #C5964A",
"P. c #C18D54",
"I. c #C28F58",
"U. c #C4935C",
"Y. c #C8955D",
"T. c #C59957",
"R. c #D49F4F",
"E. c #CEA947",
"W. c #DEBC48",
"Q. c #CFA35C",
"!. c #D6A955",
"~. c #D8AE52",
"^. c #E8B953",
"/. c #E9B947",
"(. c #CB9A63",
"). c #CE9E69",
"_. c #C79561",
"`. c #CDA867",
"'. c #D2A66C",
"]. c #D2B268",
"[. c #CCA471",
"{. c #D8AF78",
"}. c #D5AB77",
"|. c #D6B476",
" X c #DFD059",
".X c #F6DD5F",
"XX c #EFD14C",
"oX c #FBF84A",
"OX c #FFFF5B",
"+X c #F7F25C",
"@X c #FDEA53",
"#X c #DCC67C",
"$X c #DFDF7B",
"%X c #EACB69",
"&X c #F4DC62",
"*X c #E8D479",
"=X c #F5DA7C",
"-X c #E6CC76",
";X c #FCE966",
":X c #FFFE62",
">X c #F9F668",
",X c #F6E978",
"<X c #FAF573",
"1X c #DCBC84",
"2X c #DDD18D",
"3X c #E5C78A",
"4X c #E8D584",
"5X c #F1D780",
"6X c #F9DC83",
"7X c #E4C993",
"8X c #E8D699",
"9X c #FAED8B",
"0X c #F5E68A",
"qX c #FFFE8C",
"wX c #FCF789",
"eX c #EDE296",
"rX c #F8EC9F",
"tX c #F4E99A",
"yX c #FCF594",
"uX c #EEDCA4",
"iX c #F6EEAD",
"pX c #F7EBA2",
"aX c #FCF4A4",
"sX c #FEFDAB",
"dX c #FCF7A9",
"fX c #FCF9B7",
"gX c #F2E8AC",
"hX c #FFFEC5",
"jX c #FFFFCA",
"kX c #FFFFD0",
"lX c None",
/* pixels */
"lXlXlXlXlXlXlXlXlXlXlXlXlXlXlXlXlXlXlXlXlXlXlXlXlXlXlXlXlXlXlXlXlXlXlXlXlXlXlXlXlXlXlXlXlXlXlXlXlXlXlXlXlXlXlXlXlXlXlXlXlXlXlXlX",
"lXlXlXlXlXlXlXlXlXlXlXlXlXlXlXlXlXlXlXlXlXlXlXlXlXlXlXlXlXlXlXlXlXlXlXlXlXlXlXlXlXlXlXlXlXlXlXlXlXlXlXlXlXlXlXlXlXlXlXlXlXlXlXlX",
"lXlXlXlXlXlXlXlXlXlXlXlXlXlXlXlXlXlXlXlXlXlXlXlXlXlXlXlXlXlXlXlXlXlXlXlXlXlXlXlXlXlXlXlXlXlXlXlXlXlXlXlXlXlXlXlXlXlXlXlXlXlXlXlX",
"lXlXlXlXlXlXlXlXlXlXlXlXlXlXlXlXlXlXlXlXlXlXlXlXlXlXlXlXlXlXlXlXlXlXlXlXlXlXlXlXlXlXlXlXlXlXlXlXlXlXlXlXlXlXlXlXlXlXlXlXlXlXlXlX",
"lXlXlXlXlXlXlXlXlXlXlXlXlXlXlXlXlXlXlXlXlXlXlXlXlXlXlXlXlXlXlXlXlXlXlXlXlXlXlXlXlXlXlXlXlXlXlXlXlXlXlXlXlXlXlXlXlXlXlXlXlXlXlXlX",
"lXlXlXlXlXlXlXlXlXlXlXlXlXlXlXlXlXlXlXlXlXlXlXlXlXlXlXlXlXlXlXlXlXlXlXlXlXlXlXlXlXlXlXlXlXlXlXlXlXlXlXlXlXlXlXlXlXlXlXlXlXlXlXlX",
"lXlXlXlXlXlXlXlXlXlXlXlXlXlXlXlXlXlXlXlXlXlXlXlXlXlXlXlXlXlXlXlXlXlXlXlXlXlXlXlXlXlXlXlXlXlXlXlXlXlXlXlXlXlXlXlXlXlXlXlXlXlXlXlX",
"lXlXlXlXlXlXlXlXlXlXlXlXlXlXlXlXlXlXlXlXlXlXlXlXlXlXlXlXlXlXlXlXlXlXlXlXlXlXlXlXlXlXlXlXlXlXlXlXlXlXlXlXlXlXlXlXlXlXlXlXlXlXlXlX",
"lXlXlXlXlXlXlXlXlXlXlXlXlXlXlXlXlXlXlXlXlXlXlXlXlXlXlXlXlXlXlXlXlXlXlXlXlXlXlXlXlXlXlXlXlXlXlXlXlXlXlXlXlXlXlXlXlXlXlXlXlXlXlXlX",
"lXlXlXlXlXlXlXlXlXlXlXlXlXX     X X X X X O O O O O O O O O O X O O O O X X + + O O O O X X X X   X X lXlXlXlXlXlXlXlXlXlXlXlXlX",
"lXlXlXlXlXlXlXlXlXlXlXlX@ + @ + @ @ @ @ + # + + @ @ @ @ @ @ + @ @ @ # + + + + + @ @ @ @ @ + @ @ + + @ @ lXlXlXlXlXlXlXlXlXlXlXlX",
"lXlXlXlXlXlXlXlXlXlXlXlX* * * * * * & & & & & & & & $ & & & & & & & $ & & & & & & & & & & & * # * * * = lXlXlXlXlXlXlXlXlXlXlXlX",
"lXlXlXlXlXlXlXlXlXlXlX> , 6 6 6 6 6 6 7 r 1 1 3 1 1 1 1 1 2 2 2 2 1 3 1 1 1 3 1 1 1 2 7 7 7 6 p 6 p , > > lXlXlXlXlXlXlXlXlXlXlX",
"lXlXlXlXlXlXlXlXlXlX= , p g g g g g g k n c c c c c c c c c c c c c c c c c c c c c c v k k g g g g f f , & lXlXlXlXlXlXlXlXlXlX",
"lXlXlXlXlXlXlXlXlX+ = p g E @.$.$.$.E Q [ N ] B Z ] B B B B B B B ] Z ] ] Z ' B B ] [ [ Q @.$.$.$.E E g p * + lXlXlXlXlXlXlXlXlX",
"lXlXlXlXlXlXlXlX+ # > f E %.2.2.2.2.1.%.*.*.O.O.+.O.O.O.O.O.O.{ O.O.+.O.O.O.+.O.O.O.O.*.9.2.<.2.5.<.&.E k > # O lXlXlXlXlXlXlXlX",
"lXlXlXlXlXlXlXlX$ % 6 x @.w.4.g.g.4.4.w.8.L.+.+.S.S.S.S.S.S.S.S.F.+.P.+.S.S.D.+.+.+.L.8.w.4.f.g.g.4.3.@.l 6 = $ lXlXlXlXlXlXlXlX",
"lXlXlXlXlXlXlX; 5 6 h [ *.B.N.C.N.N.M./.R.T.P.I.P.P.G.P.P.P.P.P.P.P.P.P.P.I.I.P.Y.P.L.~.q.XXN.N.N.N.q.8.Q k 6 5 - lXlXlXlXlXlXlX",
"lXlXlXlXlXlX% q 4 d H *.q. X;X;X;X;X&X%X!.R.Y.Y.Y.Y.Y.Y.U.Y.Y.Y.Y.Y.Y.Y.Y.Y.U.U._.Y.!.!.%X&X;X;X;X;XXXE.*.H d 4 5 % lXlXlXlXlXlX",
"lXlXlXlXlX# % 4 d F ` 8.].,X9XyXyXyX0X4X#X'.(.(.Y.(.(.(.(.Y.(.(.(.Y.(.(.(.(.(.(.(.(.'.{.*X0XyXyXyXyX5X X8.` R d 4 % # lXlXlXlXlX",
"lXlXlXlXX # - 4 D ( ,./.%XtXsXfXfXdXgX8X1X'.).(.(.).(.(.(.).).(.(.(.(.).(.(.(.(.(.(.'.1X8XgXsXfXfXsXtX%X/.,.( D 4 - # X lXlXlXlX",
"lXlXlXlX+ # - p D -.,./.=XaXhXjXjXhXiXuX1X'.(.Y.Y._.(._.(._._._.(.(.(.(.(._.(._.Y.(.'.1XuXiXhXhXjXhXaX=X/.7.( F p ; # O lXlXlXlX",
"lXlXlXlXX # ; p R -.4./.=XdXhXkXkXjXfX8X1X).Y.P.I.U.U.U.U.U.U.U.I.I.I.I.I.U.U.I.I.U.).1XuXgXjXkXkXhXdX=XXXe.:.R s ; # X lXlXlXlX",
"lXlXlXlXX # ; s ! ;.4.XX,XdXhXkXkXhXiX8X{.U.P.P.D.G.D.G.G.G.G.G.P.G.P.P.G.G.P.D.D.P.(.{.uXiXhXjXkXhXdX6XM.4.>.R s ; # X lXlXlXlX",
"lXlXlXlXX # ; f E <.4.M.,XaXfXjXhXfXiX8X|.G.D.S.S.S.S.S.D.S.D.S.+.G.D.D.S.D.S.+.S.S.U.|.8XiXfXhXjXfXaX,XXX4.>.E f ; #   lXlXlXlX",
"lXlXlXlXX # ; f E <.y.XX;XwXsXsXsXsXtX4X].L.S.S.S.S.S.S.S.S.S.S.+.D.D.+.S.S.D.D.S.S.G.].4XtXsXsXsXsXwX;XN.f.<.E f ; # X lXlXlXlX",
"lXlXlXlXX # ; f E <.y.N.@X<XqXqXqX<XwX-X].Q.G.S.D.D.D.D.D.D.D.D.P.D.D.D.P.+.D.D.S.D.T.].*X<XwXqXqXqX<X@Xm.y.<.E f > # X lXlXlXlX",
"lXlXlXlXX @ > f E <.t.m.C.oXOXOXOXOX+X X].T.G.G.G.G.G.G.G.G.P.P.P.P.P.P.P.P.P.P.G.T.T.~. X+XOXOXOXOXoXC.m.y.<.E p > # X lXlXlXlX",
"lXlXlXlXX # > f E 2.y.d.v.V.Z.Z.Z.Z.A.XX XQ._._._._.U.U._.U.Y.U.U.U._._.U.Y.U._._.U.Q.W.n.A.Z.Z.Z.V.V.v.d.t.<.E f > # X lXlXlXlX",
"lXlXlXlXX # > f E <.t.s.k.c.x.x.x.x.v.n.q.Q.(.(.).).).).).).).).).).).).).).).).).(.Q. XM.v.x.x.x.x.c.l.s.t.<.E k ; # X lXlXlXlX",
"lXlXlXlX  # > k @.2.a.s.k.l.z.z.z.z.l.f.q.Q.T.[.[.}.{.{.{.{.{.}.{.{.}.{.{.{.}.'.[.(.Q.W.B.l.z.z.z.z.l.k.k.u.2.@.k ; # X lXlXlXlX",
"lXlXlXlX  # > k $.3.a.j.k.j.j.j.k.j.p.B.q.T.(.[.}.1X7X7X7X3X7X3X3X3X3X7X7X7X1X}.[._.L.q.f.p.j.j.j.j.k.k.j.a.3.@.k > #   lXlXlXlX",
"lXlXlXlXX # , z @.r.k.k.s.a.a.a.a.a.y.4.w.L.G.[.1X8XuXuXuXuXuXuXuXuXuXgXuXuX8X1X[.G.G.8.3.u.a.a.a.a.a.s.l.j.r.@.z , # X lXlXlXlX",
"lXlXlXlXX # , z &.r.k.k.s.a.t.t.t.u.5.1.9.L.J.[.2XuXiXiXfXiXgXgXiXgXiXiXiXiXuX7X|.G.F.w.3.y.t.t.t.t.a.s.l.h.r.@.z , @ X lXlXlXlX",
"lXlXlXlXX @ , z &.r.c.c.d.y.y.t.y.y.4.w.8.L.G.|.2XtXsXsXsXsXdXsXdXsXsXsXsXsXtX3X[.T.L.8.w.4.4.y.y.y.y.v.b.c.h.&.z , = X lXlXlXlX",
"lXlXlXlXo # 3 C =.n.A.A.C.N.M.M.M.M.M.W.~.`.`.#X4X9XqXqXqXqXqXqXyXqXqXqXqXqXwX4X#X].`.~.W.M.M.M.M.M.N.m.Z.A.n.=.z , # X lXlXlXlX",
"lXlXlXlXo @ 3 C J. X>XOX;X;X.X.X.X.X&X%X#X#X2X$X,X>XOXOX:X:X:X:X:X:X:X:X:X:X>X,X$X#X#X#X%X&X&X&X.X.X;X;XOX+X XJ.C 3 # o lXlXlXlX",
"lXlXlXlXo # 3 C J.4XqXqXwXwX9X9XwX9X9XtXeXeX0X,X+XoXZ.Z.Z.Z.Z.Z.Z.Z.Z.Z.Z.Z.oX+X,XeXeXeXtX9X9X9X9X9XwXwXqXwX4XJ.Z 3 # . lXlXlXlX",
"lXlXlXlXo @ 3 Z K.2XdXsXsXaXaXdXaXaXaXiXiXiXtX,XoXV.b.b.x.b.b.b.b.b.b.x.x.b.V.oX<XtXiXiXdXaXaXaXyXaXaXsXsXsX2XK.Z 3 # . lXlXlXlX",
"lXlXlXlXX # 3 Z K.2XtXrXaXaXpXpXrXrXpXpXgXtX0X+XA.b.z.h.h.h.h.h.h.r.h.h.h.z.v.A.;X0XtXpXpXpXpXpXpXpXaXaXaXrX2XK.Z 3 # . lXlXlXlX",
"lXlXlXlXo # 3 V H.|.6X6X6X6X5X5X=X5X5X3X5X-X%XXXC.d.h.r.r.&.&.&.&.&.&.r.r.h.l.m. X%X-X3X3X5X5X5X5X5X=X6X6X4X|.H.Z 1 # O lXlXlXlX",
"lXlXlXlXo # < V [ E.^.^.^.^.^.^.^.^.^.~.R.R.R.q.f.a.u.3.&.@.#.Q #.#.@.&.3.u.i.f.q.E.R.!.!.^.^.^.^.^.^.^.%X^.E.{ V < @ X lXlXlXlX",
"lXlXlXlXO @ ; v Q 9.6.e.e.6.6.6.6.6.7.9.o.o.o.,.2.5.2.1.@.x k a v k z @.<.5.5.5.9.o.o.o.9.7.6.6.6.6.6.0.0.6.9.Q a ; @ X lXlXlXlX",
"lXlXlXlXX # - p H (  .;.;.;.;.;.;.;. ./ _ P ^ } >.5.2.%.Q h c t t c k Q %.2.2.>. .^ P Y  ...;.;.;.;.;.;.;...( D 9 - @ + lXlXlXlX",
"lXlXlXlXlX# - 8 d F ! ^ ( } } | | | } I T S T Y :.2.>.%.R l w u 0 n l Q %.>.2.:.^ K S T I } } ..| | } ( ^ ! R d 8 - # lXlXlXlXlX",
"lXlXlXlXlXlX- q s d D F P ^ ~ ~ ~ Y U T S A A P ( >.>.-._ H j j d l J !  .>.>.( ! A A S K I Y } ~ ~ U P F A d 4 q - lXlXlXlXlXlX",
"lXlXlXlXlXlXlX: q q 4 d A K I Y U I L S G G j J / :.:.-.( ! ) P F _ ! ( :.:.-./ J j e G S L I U Y U K A d 4 8 q : lXlXlXlXlXlXlX",
"lXlXlXlXlXlXlXlX% - 5 4 A S L I I L T A e w i H !  .:.:.-. .}  . .(  ...:.:. .! G j w e A T L I I L T d 4 5 % * lXlXlXlXlXlXlXlX",
"lXlXlXlXlXlXlXlX+ # - 5 e S L I I L T A e i i ] ) / | .. . . . . . . . ... ./ ) ] b i e A T L I I L S e 0 % # + lXlXlXlXlXlXlXlX",
"lXlXlXlXlXlXlXlXX @ % 5 d L Y ~ } Y P J ] i i ] ' _ / / / / / / / / / / / / _ ' M b i M J P I } ~ Y K d 5 * @   lXlXlXlXlXlXlXlX",
"lXlXlXlXlXlXlXlXX + * 8 d U } } } } ^ F G i m m ] ' ) ) ) ) ) ) ) ) ) ) ) W J ' M b m G J ~ } } | } U d 0 % + X lXlXlXlXlXlXlXlX",
"lXlXlXlXlXlXlXlXX + % 8 D ^ X.X.X...} _ ] m m m M ] ] ] ' ' ] ] ' ' ' ' ] ] ] M m m M ' _ } | X.X.| ^ D 8 % @ X lXlXlXlXlXlXlXlX",
"lXlXlXlXlXlXlXlX+ # % 4 D !  .X.X. .( _ H m b b b m m m m m b m m m m m b m b b i b M ' _ (  .:.X.| ! D 8 - # X lXlXlXlXlXlXlXlX",
"lXlXlXlXlXlXlXlX+ # = 8 d F ! ( ( ! ! H M b y y y y y y y y y y y y y y y y y y y y n l H ! ! ( ( ! F d 6 = @ + lXlXlXlXlXlXlXlX",
"lXlXlXlXlXlXlXlX+ # & : a d D D D D l j h t r r r r r r r r r r r r r r r r r r r t u w h G D D D D d a 5 * # + lXlXlXlXlXlXlXlX",
"lXlXlXlXlXlXlXlX+ @ $ % 5 6 9 p 9 8 8 7 7 : 1 < < < < < < < < < < < < < < < < < < < < 7 7 0 9 9 p 8 6 5 % & # + lXlXlXlXlXlXlXlX",
"lXlXlXlXlXlXlXlX# # # $ * ; ; - < - - * * & & & & & & & & & & & & & & & & & & & & & & * - : : ; ; ; - * $ # # @ lXlXlXlXlXlXlXlX",
"lXlXlXlXlXlXlXlX@ # # # # # # $ & # & # # $ # # # # + & # # # # # # & # + # # # # # # # # # # # $ # # # # # # # lXlXlXlXlXlXlXlX",
"lXlXlXlXlXlXlXlXlX# @ @ + + + O + + + + + + @ @ + + # + + + # + + # + + + # + + @ @ + + + + + + O + + @ + @ # lXlXlXlXlXlXlXlXlX",
"lXlXlXlXlXlXlXlXlXlXlXlXlXlXlXlXlXlXlXlXlXlXlXlXlXlXlXlXlXlXlXlXlXlXlXlXlXlXlXlXlXlXlXlXlXlXlXlXlXlXlXlXlXlXlXlXlXlXlXlXlXlXlXlX",
"lXlXlXlXlXlXlXlXlXlXlXlXlXlXlXlXlXlXlXlXlXlXlXlXlXlXlXlXlXlXlXlXlXlXlXlXlXlXlXlXlXlXlXlXlXlXlXlXlXlXlXlXlXlXlXlXlXlXlXlXlXlXlXlX",
"lXlXlXlXlXlXlXlXlXlXlXlXlXlXlXlXlXlXlXlXlXlXlXlXlXlXlXlXlXlXlXlXlXlXlXlXlXlXlXlXlXlXlXlXlXlXlXlXlXlXlXlXlXlXlXlXlXlXlXlXlXlXlXlX",
"lXlXlXlXlXlXlXlXlXlXlXlXlXlXlXlXlXlXlXlXlXlXlXlXlXlXlXlXlXlXlXlXlXlXlXlXlXlXlXlXlXlXlXlXlXlXlXlXlXlXlXlXlXlXlXlXlXlXlXlXlXlXlXlX",
"lXlXlXlXlXlXlXlXlXlXlXlXlXlXlXlXlXlXlXlXlXlXlXlXlXlXlXlXlXlXlXlXlXlXlXlXlXlXlXlXlXlXlXlXlXlXlXlXlXlXlXlXlXlXlXlXlXlXlXlXlXlXlXlX"
};
