/* XPM */
static char *result[] = {
/* columns rows colors chars-per-pixel */
"64 64 191 2 ",
"   c #0F1212",
".  c #141515",
"X  c #1A1A1A",
"o  c #181717",
"O  c #271818",
"+  c #251516",
"@  c #3F1618",
"#  c #222323",
"$  c #2D2D2D",
"%  c #30302F",
"&  c #353535",
"*  c #3A3B3B",
"=  c #373C3E",
"-  c #322425",
";  c #42191B",
":  c #401719",
">  c #621B1E",
",  c #6C2D1E",
"<  c #682F1E",
"1  c #7F1E23",
"2  c #4E2E31",
"3  c #6B2627",
"4  c #7C2922",
"5  c #683A26",
"6  c #7A3534",
"7  c #7F3224",
"8  c #5F442D",
"9  c #40403F",
"0  c #744F34",
"q  c #3D3E40",
"w  c #3F4040",
"e  c #434343",
"r  c #474748",
"t  c #474849",
"y  c #4B4C4C",
"u  c #4E4F51",
"i  c #4F5051",
"p  c #525353",
"a  c #55585A",
"s  c #5B5B5C",
"d  c #585557",
"f  c #665544",
"g  c #765846",
"h  c #774C4C",
"j  c #716557",
"k  c #5D5E60",
"l  c #5F6162",
"z  c #626363",
"x  c #656668",
"c  c #6B6C6C",
"v  c #746A66",
"b  c #6F7272",
"n  c #737373",
"m  c #757778",
"M  c #7B7C7D",
"N  c #7D7976",
"B  c #7B7369",
"V  c #921D22",
"C  c #801F23",
"Z  c #8C2A2C",
"A  c #872426",
"S  c #942226",
"D  c #992327",
"F  c #952529",
"G  c #9A262A",
"H  c #942D2D",
"J  c #9E2A2D",
"K  c #8F2C31",
"L  c #912E33",
"P  c #9D2B30",
"I  c #86373A",
"U  c #923136",
"Y  c #943338",
"T  c #8D3029",
"R  c #A12E31",
"E  c #A53335",
"W  c #A93739",
"Q  c #AB3B3C",
"!  c #A53638",
"~  c #A12C2F",
"^  c #91191E",
"/  c #974437",
"(  c #8F5334",
")  c #A3603C",
"_  c #AF3F40",
"`  c #8A4244",
"'  c #8C474B",
"]  c #92474B",
"[  c #944D52",
"{  c #865C5C",
"}  c #995357",
"|  c #975659",
" . c #8D4E50",
".. c #AF4041",
"X. c #B44545",
"o. c #B64748",
"O. c #BA4C4C",
"+. c #B74848",
"@. c #BF5151",
"#. c #8F644D",
"$. c #8F6446",
"%. c #93674D",
"&. c #9B6E4F",
"*. c #986649",
"=. c #896B58",
"-. c #916B54",
";. c #946F58",
":. c #9B6C51",
">. c #97715A",
",. c #AC7A4E",
"<. c #A97548",
"1. c #AC7B52",
"2. c #A67B59",
"3. c #AA7046",
"4. c #886964",
"5. c #91676B",
"6. c #86746B",
"7. c #8E7465",
"8. c #957A6C",
"9. c #967A6A",
"0. c #996F73",
"q. c #946E71",
"w. c #837675",
"e. c #877D79",
"r. c #987175",
"t. c #9B7679",
"y. c #A17A7E",
"u. c #B7864F",
"i. c #BE8B56",
"p. c #BC8B59",
"a. c #B88954",
"s. c #BC935C",
"d. c #86827B",
"f. c #898279",
"g. c #8F8477",
"h. c #9A8A75",
"j. c #B5966D",
"k. c #B9986E",
"l. c #B8976E",
"z. c #A28F76",
"x. c #AC906A",
"c. c #CA985E",
"v. c #C6955B",
"b. c #C69A64",
"n. c #CA9C64",
"m. c #C19965",
"M. c #D19F60",
"N. c #D4A263",
"B. c #7D7F80",
"V. c #7F8082",
"C. c #828384",
"Z. c #868788",
"A. c #87888A",
"S. c #8A8B8D",
"D. c #8D8685",
"F. c #948683",
"G. c #9B8D86",
"H. c #998C8E",
"J. c #9A888A",
"K. c #8D8F91",
"L. c #9D8F92",
"P. c #8E9192",
"I. c #929395",
"U. c #9D9194",
"Y. c #959799",
"T. c #96999B",
"R. c #9A9B9D",
"E. c #9F979B",
"W. c #A3989B",
"Q. c #9C9EA1",
"!. c #A99DA0",
"~. c #A09CA0",
"^. c #9EA1A4",
"/. c #A1A3A6",
"(. c #A3A6A9",
"). c #A6AAAC",
"_. c #A9ABAE",
"`. c #ABAEB1",
"'. c #A7ADB0",
"]. c #ADB1B4",
"[. c #AEB4B8",
"{. c #B1B3B7",
"}. c #B3B6B9",
"|. c #B6BABD",
" X c #B8BBBF",
".X c #B7BDC0",
"XX c #BBBEC2",
"oX c #BEC1C5",
"OX c #C0C3C7",
"+X c #C2C5C9",
"@X c None",
/* pixels */
"@X@X@X@X@X@X@X@X@X@X@X@X@X@X@X@X@X@X@X@X@X@X@X@X@X@X@X@X@X@X@X@X& % % % % & % % $ $ % $ $ $ $ % % $ % % @X@X@X@X@X@X@X@X@X@X@X@X",
"@X@X@X@X@X@X@X@X@X@X@X@X@X@X@X@X@X@X@X@X@X@X@X@X@X@X@X@X@X@X@X@X& & * & & & & & & q q & & q & * q & & * @X@X@X@X@X@X@X@X@X@X@X@X",
"@X@X@X@X@X@X@X@X@X@X@X@X@X@X@X@X@X@X@X@X@X@X@X@X@X@X@X@X@X@X@X@Xr e r r r r y t t t t r r r r r r e r e @X@X@X@X@X@X@X@X@X@X@X@X",
"@X@X@X@X@X@X@X@X@X@X@X@X@X@X@X@X@X@X@X@X@X@X@X@X@X@X@X@X@X@X@Xt p s s k z x x x x x x x x x x z k k k u y @X@X@X@X@X@X@X@X@X@X@X",
"@X@X@X@X@X@X@X@X@X@X@X@X@X$ $ & % % $ % % $ % % % % % $ $ % * p x b B.C.C.A.A.K.S.A.S.A.S.S.Z.Z.V.B.b z u q % @X@X@X@X@X@X@X@X@X",
"@X@X@X@X@X@X@X@X@X@X@X@X& * & & & * * & & * & * & = & & & & r s n A.I.Q.(.)._._._.)._._._._.(.!.Q.I.A.m k r * % @X@X@X@X@X@X@X@X",
"@X@X@X@X@X@X@X@X@X@X@X@Xr t t t r t y t r t t t t t t r r r p c B.Q.).`.}.XX.XXXXXXXXXXXXXXXXX}.`.!.Q.B.x u r q @X@X@X@X@X@X@X@X",
"@X@X@X@X@X@X@X@X@X@X@Xp s x x x x x x x x x z x x x x z k z c B.I.~.`..XXXXXoXoX+X+XXX+X+XXXoXXX.X{.Q.P.B.z k u t @X@X@X@X@X@X@X",
"@X@X@X@X@X@X@X@X@X& e s b B.S.K.S.S.S.S.A.A.A.S.S.A.A.A.C.C.A.U.^.'..X.XXXoXoXoXoXoXoXoXOXoXoXXX.X|.`.Q.P.V.n l p q & @X@X@X@X@X",
"@X@X@X@X@X@X@X@X% & t z C.Q._.'.`._._.)._._._._.`._.).(.^.^./.).]..X.X.XXXXXXXXXXXXXXXXXXXXXXXXX.X.X}.`.(.T.A.b s r & & @X@X@X@X",
"@X@X@X@X@X@X@X@X* e d b K.`..XXXXXXXXXXXXXXXXXXX.X.X.X|.}.[.{.{.|.XXXXXXXXXXXXXXXXXXXXoXXXXXXXXXXXXX.X}.`.(.Y.M l y e * @X@X@X@X",
"@X@X@X@X@X@X@Xe p s c V.Q.}.+X+X+XOXoXOXOXOXoXOX+XoXXXXX|.}.}.|.|.XXXXXXoXXXXXXXXXXXXXXXXXXXXXXXoXXXXX}.].).R.C.c s y t e @X@X@X",
"@X@X@X@X@X% q p l n C.I.(.}.XX+XOXoXoXOXoXoXoXoXoXoXXXXX}.}.}.}.|.XXXXXXXXXXXXXXXXoX XXXXXXXXXXXoXXXXX|.].(.R.S.M c l p t 2 = & ",
"@X@X@X@X& & r d n A.T.(.].|.XXXXoXXXXXXXXXXXXXXXXXXXXX|.{.{.{.{.|.XXXXXXXXXXXX X XXXXXXXXXXXXXXXXXXX|.{.].(.R.P.Z.N c s y e & & ",
"@X@X@X@Xq r u z B.I.(.`.}..XXXXXXXXXXXXXXXXXXXXXXXXX.X|.}.{.{.{.}.}.|.XXXX|.|.XXXXXX}.XXXXXX}.XX X|.}.]._.(.R.Y.S.d.n l i w = % ",
"@X@X@Xy u k x m A.Q.(.{.}.XXXXXXXXXXoXXXXXXXXXXXXXXX X|.}.{.`.{.{.{.{.{.{.{.{.{.{.{.{.{.{.{.{.{.}.}.].`.).^.^.Y.K.C.m z i w = % ",
"& & e p x n B.A.I.Q.).`.}..XXXXXXXXXXXXXXXXXXXXXXXXX X}.}.{.`.`.`.`.'.`.`.`.`.'.`.`._.`.`.`.`.`._._._.).(./.Q.Y.S.C.n z i w = & ",
"& & e s n A.I.Q.Q.Q.).`.{.|.XXXXXXXXXXXXoXXXXXXXXXXXXX|.{.{.`._.).).(.(./.(./.(./././.)./././.(.(.(.(./././.Q.Y.S.Z.n z i 2 & & ",
"% & r s m I.Q.(./././.`.{..XXXXXXXXXXXXXXXXXXXoXXXXX X|.}.].`._./././.~.Q./.(./././././././././././.!././.^.Q.Y.S.C.n z i w & & ",
"% & r z B.Q.)._.)././._.{.|.XXXXoXXXXXXXXXXXXXXXXXXXXX|.}.{.`._.(././.Q.Q.Q.Q.^.Q.Q.Q.^.Q.Q.^.^.Q.^.Q././.^.Q.Y.K.C.n z i w & & ",
"% = t z B.Q._.'.).!.(._.{. XXXXXXXXXXXXXXXXXXXXXXXXX X|.{.`.`.).(./.Q.Q.Q.^.^.Q./.Q.Q.^.Q.Q.^.Q.^.Q.^./././.Q.Y.K.C.n l i w & & ",
"% & t k C.Q.'.`._./.(.`.{. XXX.XXXXXoXXXXXXXXXXXXXXX X|.}.{.{.).).~././.~.~./././././././././././././.~././.Q.Y.S.d.n z i w * % ",
"% & t z C.^.`.`._./.(.).].}..X.XXXXXXXXXXXoXXXXXXXXXXX X|.{.{._.).).(.(.(.(.(.(././.(.(././.(.(.)./././.Q.Q.T.U.S.C.n z i 9 & & ",
"% * t l Z.~.`.]._././.)._.].}.|.XXXXXXXXXXXXXXXXXXXXXX X|.}.{.{.`.`.`.`._.`.`.`.'.`.`.`.`.`.`.`.`.`.).(.Q.T.P.S.Z.d.n z i 9 & & ",
"% = r l C./.].]._.(././.).'.`.{.|.XXXXXXXXXXXXXXXXXXXXXX|.|.|.}.}.{.{.{.{.{.{.}.[.}.}.{.}.{.}.}.}.{.].(.T.S.C.Z.C.B.n z i 9 & & ",
"% & r l C.Q.`.`._./././.^.(.).`.{.|.XXXXXXXXXXXXXXXXXXXXXXXXXX|..X.X.X|.|.|. X X|.|.|.|. X X|.|.XX}.{.(.T.A.Z.C.d.M n z i 9 & & ",
"& & r k M T.(._.)./.^.^.^.).(.).`.|. XXX.X.X.X.X|.XX XXX.X.X.X.X.XXX.XXXXX.X|. X.X|..X.X|.|. X.X X X[.(.E.A.C.d.V.M m z i 9 * % ",
"& & e s m P.Q././.^.^./.^.^.^.).`.{.}.}..X|..X.X.X.X.X|..X.X.X.X.X.X.X}.}.}.}.}.}.|.[.}.}.}.|.|.|.}.].(.R.P.A.C.C.B.n z i 9 & & ",
"% & e d c Z.I.T.Q.Q.^.(.^.^.(.).'.`.`.{.}..X.X|.|.|..X}..X.X.X.X.X.X.X}.{.].].].].].'.].].].].].].].).^.^.Y.I.S.Z.B.n z i w = & ",
"& & 9 i x N A.K.T.Q.~./.(.^./././.(.(.).`.'.{.].].].{.].].`.`.{.`.{.`._._.(.(././.(.(.(.^.(.^.(.(.(.(.(.^.R.T.I.S.d.n l i 2 & & ",
"& & e i l n C.K.Y.Q.~.Q.E.E.U.L.L.L.U.W.W.!.!.!.!.!.!.!.!.!.!.!.!.!.!.W.W.U.L.L.L.L.U.U.U.U.U.L.U.U.E.E.E.^.R.Y.K.C.n z i e = & ",
"& & 9 u l b e.K.Y.Q.W.E.J.t.r.0.0.r.t.t.t.y.y.y.y.y.y.y.y.y.y.y.y.y.y.t.t.r.r.r.r.r.r.r.r.r.0.0.0.r.t.J.W.Q.Q.T.P.d.n z y w & % ",
"% = e y k b B.K.Y.Q.E.J.0.| [ [ [ [ [ [ } } } } } } } } } } } } } } } } [ [ [ [ [ [ [ [ [ [ [ [ [ [ | r.J.~.Q.Y.S.B.b l u 9 * % ",
"% = 2 u k m V.K.Q.Q.U.y.| ] U K L U U U U Y Y U Y Y Y Y Y Y Y Y Y Y Y Y U U U Y Y T U U U U Y T H U ] ;.t.L.Q.Q.P.C.n l u q & & ",
"& = e u x M A.P.Y.Y.H.r.[ U S V S F F F F S S F F F F F F G G F F F F F S S V F D D D T F F S V V V L [ q.H.Q.Y.I.Z.B.x p 9 * % ",
"% & w d b C.P.T.Y.I.F.5.] K V V F J J J F S D G P P P ~ P ~ ~ ~ ~ P P G G F G G J J J J G F V V V V F ] 5.D.K.Q.Q.S.B.c d 9 * % ",
"% = e s B.S.Q.Q.Y.S.e.4.` K S G ~ W W E R J J J R _ _ W _ _ W _ Q Q W E R J J R E W W E E J G D V V K ' { e.S.Y.Q.Q.I.m s e & & ",
"% = r l B.Q.Q.Q.Y.A.w.{ ` K S P W _ X._ W E E Q _ _ o._ O._ _ o.X.X.X.Q W E E W ..X.X...! E J G V V K ` { w.A.I.Q.Q.Q.B.l r & % ",
"& & r z B.Q.).(.Q.A.w.{ ` K F P Q +.+.X.Q W W _ _ o.@.@.@.o.O.@.O.O.O.X.Q ! W Q X.+.O.X...E R G G F K ` { w.S.Q.^._.Q.C.z r & & ",
"% & t z A.Q.'.).Q.K.D.{ ' L G R Q +.O.o._ W W _ o.o.@.@.@.@.@.@.@.@.O.X...! ! _ X.O.O.+...! R J G V K ' 5.e.P.Q.'.`.~.C.x y & % ",
"% & t z C.^.].].^.T.F.5.' U J R _ +.O.o._ ! ! ..o.@.@.@.@.@.@.@.@.@.O.X._ W W Q o.O.O.o...W R J D S L ] 5.F.T.(.'.].^.Z.l t = % ",
"& & t z C.^.].'.).^.L.q.[ U F R Q +.+.o._ W ! Q _ o.@.O.O.@.@.@.O.O.O.X._ E ! Q X.o.O.X...E R J D S U  .r.H.^.).[.'.^.V.l t & % ",
"% & t l V.T.(.).(.^.H.q. .K T F W ...._ Q E E ! _ _ o.o._ o.o.o.+.X.X...W ! E W Q X.X...W E ~ D A A U  .q.H.R.).'.(.T.B.s r = % ",
"& & e s m P.R.^.Q.Y.D.6.h 6 4 T P ! Q E R J J E W _ _ _ _ _ _ _ Q ..Q W E R P R W W Q ! E J H A C 4 6 h 6.D.T.R.^.Q.K.m s e & & ",
"% & 9 d b C.P.P.I.S.d.v g 5 , 7 A J J J G G G G P R E E E E R E E E P R J J P P J J P J J F S C 4 < 5 f v d.S.I.I.I.C.c d e & & ",
"& * 9 p x m Z.A.A.C.N j 0 8 < , 4 T F G F S S F F F F F F F F F F G F S S S F V F F F F F F A 4 , < 5 f j N C.A.A.C.N x p e & & ",
"& & 9 p z n B.C.C.d.N x f 8 < , 7 T H H K K Z Z Z C 1 1 C C 1 4 A 1 1 1 1 1 4 A Z K K H F H T 4 5 5 8 f v N C.Z.C.B.n z i w & & ",
"& * 9 y l b M Z.A.Z.d.B j f 8 0 ( / / / ` ` I 6 3 > > > > > > > > > > > > > 3 3 6 I ` ` / / / ( 0 0 0 j B d.Z.A.Z.N n l y e & & ",
"% * w y l n e.A.K.P.K.g.=.g ( ( ) ) ) *.%.{ h h 2 2 : @ @ @ ; ; ; ; ; @ @ ; 2 2 h h { #.3.) ) ) ( 0 g =.d.S.K.K.Z.M b l y 9 * % ",
"& & 9 i l m V.S.I.T.Y.g.7.=.$.$.3.<.,.2.9.6.v d 2 - + + + O O O O O O + + O - 2 p v 4.9.2.u.,.) $.$.$.g.h.U.Y.Y.S.C.n z i 9 * & ",
"% & 9 p x m A.P.T.Q.E.G.g.-.&.<.,.u.a.a.h.6.b d * # . . . o o o o . o . . . # q d c e.h.a.a.,.<.<.&.>.h.G.R.^.T.I.Z.N z i 9 & % ",
"& & r p x B.K.T.^.^.W.G.g.;.-.u.u.p.s.x.z.e.n a = # .     .       .       . # = a n d.h.x.s.v.,.<.&.;.9.G.E.^.^.T.K.V.c p 9 * & ",
"% * e d n A.T.^.(.^.R.G.9.&.&.,.u.v.m.j.z.d.b a = # .     . . . . . .     . # q a b d.h.x.m.v.v.<.&.>.8.G.W.^.^.Q.T.A.n d e & % ",
"% & r s m S.^.^.^.(.E.J.9.;.&.,.i.v.m.j.z.e.b d q # . . . . o o o . . . . . # * a b f.z.l.b.v.u.,.&.;.8.G.R.^.(.^.R.K.m s r & & ",
"% & r s m P.Q.^.^.R.U.h.8.>.&.,.a.v.b.l.z.f.c s q # # . . o X X X X X o . X $ q d b f.z.l.b.v.v.,.&.;.8.F.Y.R.^.^.Q.P.m s r * % ",
"% * t z M S.I.T.T.I.K.g.7.-.&.1.v.b.n.l.z.f.b s e % # # # # # # # # # # # # $ e s n f.z.l.b.v.u.u.-.-.7.g.H.Y.Y.T.Y.S.M z y & $ ",
"@X@X@Xc M C.S.K.K.A.d.e.7.;.&.,.a.v.b.l.z.e.n k y & % # # $ $ $ $ $ $ # $ $ & r l n d.z.k.b.v.v.u.&.%.7.e.Z.S.S.K.A.A.M x @X@X@X",
"@X@X@X@XM C.C.C.C.C.e.6.=.-.&.1.v.c.b.l.z.f.m l u * & % & % & & % % & & $ & * u l n f.z.k.b.v.v.,.&.=.7.6.e.C.C.C.C.C.M @X@X@X@X",
"@X@X@X@XM M B.B.V.B.N 6.=.-.&.1.i.v.n.k.z.g.m l u q * & & & & & & & & & & & q u z m f.z.k.n.c.a.1.&.%.=.6.w.M V.B.M B.B.@X@X@X@X",
"@X@X@X@X@XM M M M M w.6.=.#.:.u.v.c.n.k.x.g.m l u q * & & & & * = & * & & * w u l m g.x.k.n.c.v.1.&.%.=.6.w.M B.M M N @X@X@X@X@X",
"@X@X@X@X@X@X@X@X@X@X@X=.=.-.&.1.p.c.n.n.l.@X@X@X@X@X@X@X@X@X@X@X@X@X@X@X@X@X@X@X@X@X@Xk.n.n.c.p.1.&.#.=.=.@X@X@X@X@X@X@X@X@X@X@X",
"@X@X@X@X@X@X@X@X@X@X@X@X#.%.&.1.p.c.M.N.@X@X@X@X@X@X@X@X@X@X@X@X@X@X@X@X@X@X@X@X@X@X@X@XN.n.c.p.1.&.%.#.@X@X@X@X@X@X@X@X@X@X@X@X",
"@X@X@X@X@X@X@X@X@X@X@X@X#.%.&.1.p.c.N.N.@X@X@X@X@X@X@X@X@X@X@X@X@X@X@X@X@X@X@X@X@X@X@X@XN.N.c.p.1.&.%.#.@X@X@X@X@X@X@X@X@X@X@X@X",
"@X@X@X@X@X@X@X@X@X@X@X@X#.-.&.1.p.c.M.N.@X@X@X@X@X@X@X@X@X@X@X@X@X@X@X@X@X@X@X@X@X@X@X@XN.M.c.p.1.&.%.#.@X@X@X@X@X@X@X@X@X@X@X@X"
};
