/* XPM */
static char *result[] = {
/* columns rows colors chars-per-pixel */
"42 56 196 2 ",
"   c #000000",
".  c #0B0504",
"X  c #0D0907",
"o  c #07090A",
"O  c #0F0909",
"+  c #160907",
"@  c #19130E",
"#  c #151818",
"$  c #191D1D",
"%  c #181313",
"&  c #080D11",
"*  c #271212",
"=  c #372110",
"-  c #3F2A1D",
";  c #24221B",
":  c #151D22",
">  c #1E2324",
",  c #15222C",
"<  c #1C2D3B",
"1  c #1B2A34",
"2  c #1F303D",
"3  c #252524",
"4  c #282929",
"5  c #352525",
"6  c #272E36",
"7  c #302430",
"8  c #382631",
"9  c #2C3232",
"0  c #373737",
"q  c #3B3938",
"w  c #3E342E",
"e  c #561919",
"r  c #601C1C",
"t  c #6C1F1F",
"y  c #492C17",
"u  c #503018",
"i  c #572E1B",
"p  c #442823",
"a  c #473C3B",
"s  c #573635",
"d  c #512F29",
"f  c #662628",
"g  c #683535",
"h  c #7C3C3C",
"j  c #703B3D",
"k  c #49473B",
"l  c #725134",
"z  c #203444",
"x  c #373642",
"c  c #403040",
"v  c #4D3441",
"b  c #4F3A44",
"n  c #553641",
"m  c #553944",
"M  c #5E3B45",
"N  c #6B3E45",
"B  c #384040",
"V  c #39464B",
"C  c #334856",
"Z  c #3B5D77",
"A  c #385367",
"S  c #3E607A",
"D  c #464544",
"F  c #544943",
"G  c #5E4B46",
"H  c #5C4746",
"J  c #4F4753",
"K  c #50555B",
"L  c #5C4C4C",
"P  c #654B4A",
"I  c #774040",
"U  c #784040",
"Y  c #704249",
"T  c #67534D",
"R  c #70514E",
"E  c #6F5351",
"W  c #795954",
"Q  c #7B6858",
"!  c #5A5765",
"~  c #6D5A65",
"^  c #77676E",
"/  c #676473",
"(  c #6F6B79",
")  c #716876",
"_  c #853C37",
"`  c #902A2A",
"'  c #A53939",
"]  c #B53B36",
"[  c #C03838",
"{  c #8F6A1D",
"}  c #AD7513",
"|  c #885028",
" . c #96542F",
".. c #BB482E",
"X. c #926C32",
"o. c #86623A",
"O. c #C2502A",
"+. c #8E4745",
"@. c #804947",
"#. c #854949",
"$. c #944846",
"%. c #964946",
"&. c #8D4E51",
"*. c #BF4447",
"=. c #B05048",
"-. c #BA564C",
";. c #BE4E54",
":. c #B15D5A",
">. c #BA5C54",
",. c #A94E47",
"<. c #88644C",
"1. c #94684D",
"2. c #8A6659",
"3. c #90695B",
"4. c #916B50",
"5. c #9B785F",
"6. c #BE6058",
"7. c #A4795A",
"8. c #937466",
"9. c #816E70",
"0. c #B26A6C",
"q. c #B56664",
"w. c #AA7E73",
"e. c #B17B76",
"r. c #AC726C",
"t. c #C0594E",
"y. c #CA6357",
"u. c #DA685A",
"i. c #E46E5E",
"p. c #DB7B75",
"a. c #E87060",
"s. c #A48210",
"d. c #BD8F09",
"f. c #C48D08",
"g. c #C89800",
"h. c #AD8365",
"j. c #B18269",
"k. c #BB8B6D",
"l. c #B58D79",
"z. c #C8916C",
"x. c #D1936D",
"c. c #DC827E",
"v. c #CA9672",
"b. c #D89870",
"n. c #E8877D",
"m. c #D8A078",
"M. c #406888",
"N. c #B87A89",
"B. c #AD7889",
"V. c #917B8F",
"C. c #8C8092",
"Z. c #AF9687",
"A. c #BA9E8C",
"S. c #928DA8",
"D. c #9B96B3",
"F. c #9792AE",
"G. c #A298AD",
"H. c #A09BB5",
"J. c #B69EB4",
"K. c #B999B3",
"L. c #BA92AA",
"P. c #B3AEBE",
"I. c #B6A4BD",
"U. c #B8B0BE",
"Y. c #C09183",
"T. c #DE9594",
"R. c #E88E86",
"E. c #CBA38A",
"W. c #DCA783",
"Q. c #D3A692",
"!. c #C9A995",
"~. c #E2AF8B",
"^. c #E6B798",
"/. c #DBB6A1",
"(. c #D2ACB3",
"). c #ECBEA0",
"_. c #EEC1A4",
"`. c #F1C5A9",
"'. c #F6CDB4",
"]. c #F8D0B8",
"[. c #AAA6C7",
"{. c #B8B1D1",
"}. c #B8B8D8",
"|. c #BEB9D5",
" X c #BBB0C3",
".X c #C2B8C2",
"XX c #D9C4CC",
"oX c #C5C5DD",
"OX c #DDCAD6",
"+X c #E7D2D3",
"@X c #C7C7E2",
"#X c #DEDEF1",
"$X c #EBDBE0",
"%X c #E8E8F8",
"&X c #E5E0EF",
"*X c None",
/* pixels */
"*X*X*X*X*X*X*X*X*X*X*X*X*X*X*X*X*X*X*X*X*X*X*X*X*X*X*X*X*X*X*X*X*X*X*X*X*X*X*X*X*X*X",
"*X*X*X*X*X*X*X*X*X*X*X*X*X*X*X*X*X*X*X*X*X*X*X*X*X*X*X*X*X*X*X*X*X*X*X*X*X*X*X*X*X*X",
"*X*X*X*X*X*X*X*X*X*X*X*X*X*X*X*X*X*X*X*X*X*X*X*X*X*X*X*X*X*X*X*X*X*X*X*X*X*X*X*X*X*X",
"*X*X*X*X*X*X*X*X*X*X*X*X*X*X*X*X*X*X*X*X*X*X*X*X*X*X*X*X*X*X*X*X*X*X*X*X*X*X*X*X*X*X",
"*X*X*X*X*X*X*X*X*X*X*X*X*X*Xc x c c c c c c c c c c c c *X*X*X*X*X*X*X*X*X*X*X*X*X*X",
"*X*X*X*X*X*X*X*X*X*X*X*X*X*XM M M M M M M M M M M M M M *X*X*X*X*X*X*X*X*X*X*X*X*X*X",
"*X*X*X*X*X*X*X*X*X*Xc c c c >.a.a.a.a.a.a.a.a.a.a.a.a.a.m c c c *X*X*X*X*X*X*X*X*X*X",
"*X*X*X*X*X*X*X*X*X*Xn n M M y.a.a.a.a.a.a.a.a.a.a.a.a.a.Y M m m *X*X*X*X*X*X*X*X*X*X",
"*X*X*X*X*X*X*X*Xc c $.=.u.a.a.a.a.a.a.a.a.a.a.i.a.a.a.a.a.a.-.=.v c *X*X*X*X*X*X*X*X",
"*X*X*X*X*X*X*X*Xc c $.=.u.a.a.a.a.a.a.a.a.a.a.a.a.a.a.a.a.a.-.=.v c *X*X*X*X*X*X*X*X",
"*X*X*X*X*X*X*X*Xc c %.-.u.a.a.a.a.a.a.a.a.a.a.a.a.a.a.a.a.a.t.-.n x *X*X*X*X*X*X*X*X",
"*X*X*X*X*X*X*X*Xc x y.a.a.a.a.a.a.a.a.a.a.a.a.a.a.a.a.a.a.a.a.a.m c *X*X*X*X*X*X*X*X",
"*X*X*X*X*X*X*X*Xc c >.a.a.a.a.a.a.a.a.a.a.a.a.a.a.a.a.a.a.a.a.a.n c *X*X*X*X*X*X*X*X",
"*X*X*X*X*X*X*X*Xc c y.a.a.a.a.a.a.a.a.a.a.a.a.a.a.a.a.a.a.a.a.a.n q *X*X*X*X*X*X*X*X",
"*X*X*X*X*X*Xc c n n >.u.i.a.a.a.a.a.n.R.R.R.R.R.a.a.a.a.a.a.u.u.N M c c *X*X*X*X*X*X",
"*X*X*X*X*X*Xc c $.=.=.=.u.a.a.a.a.a.+X%X%X%X%X%XR.a.a.a.a.a.-.=.=.,.v c *X*X*X*X*X*X",
"*X*X*X*X*X*X7 7 +.=.=.=.y.u.u.u.p.c.$X%XOXXX&X%XT.c.u.u.u.u.=.=.=.=.8 7 *X*X*X*X*X*X",
"*X*X*X*X*X*X    _ =.=.=.=.=.=.=.K.}.#X%Xq.=.OX%XoX|.:.=.=.=.=.=.=.=..   *X*X*X*X*X*X",
"*X*X*X*X*X*X    _ =.,.=.=.=.=.=.J.}..XOXq.=.(..X.X}.:.=.=.=.=.=.=.=..   *X*X*X*X*X*X",
"*X*X*X*X*X*X    _ =.=.=.=.=.=.,.J.}.:.;.=.-.-.=.[.}.:.;.=.=.=.=.=.=..   *X*X*X*X*X*X",
"*X*X*X*X*X*X    g $.,.=.q.0.0.0.[.|.B.q.0.0.0.0.[.}.e.0.0.0.=.=.$.$..   *X*X*X*X*X*X",
"*X*X*X*X*X*X.   7 a $.=.J.}.}.}.}.}.}.}.}.}.}.}.}.}.}.}.}.}.:.=.n c     *X*X*X*X*X*X",
"*X*X*X*Xu u +   8 c $.=.J.}.}.}.}.}.}.}.}.}.}.}.}.}.}.}.}.}.:.=.a c o   u u *X*X*X*X",
"*X*X*X*X= = - p s m N +.V.S.[.}.oX@X@X@X@X@X@X@X@X@X}.}.F.S.&.+.m b p p = = *X*X*X*X",
"*X*X*X*X    1.b.<.R b a x c D.}.#X%X%X%X%X%X%X%X%X%XoX}.m c c c P R x.b.O   *X*X*X*X",
"*X*X*X*X    1.b.W G m b b n V.G.U. X X XP.P.P.[..X.XG.D.J m b m H H x.b.O   *X*X*X*X",
"*X*X*X*X    1.b.G 0 P R R R R R R R c c a c x a Y R R R R E E E q 0 x.b.X   *X*X*X*X",
"*X*X*X*X*X  l 1.k 0 W 3.W R 2.2.T H E E R R E E L H ^ 9.R E 2.3.a 0 <.1.X   *X*X*X*X",
"*X*X*X*X*X*X    4 0 h.m.2.E k.m.P q k.m.m.m.m.m.J 0 D.[.~ R v.b.D 0     *X*X*X*X*X*X",
"*X*X*X*X*X*X*X  > 4 h.m.7.3.E.^.k 4 k.~.~.~.~.~.a 4 [..Xr.2.v.b.w 3 o   *X*X*X*X*X*X",
"*X*X*X*X*X*X*X*X    5.m.m.m.+X%XB   !.].].].].].5   oX%XW.m.W.m.*   *X*X*X*X*X*X*X*X",
"*X*X*X*X*X*X*X*X*X  l <.z.m.+X$X9.L /.].].].].].Q G OX$XW.m.4.<.@ . *X*X*X*X*X*X*X*X",
"*X*X*X*X*X*X*X*X*X*X    7.b.`.].].].].].].].].].].].].].W.m.@   *X*X*X*X*X*X*X*X*X*X",
"*X*X*X*X*X*X*X*X*X*X    <.j./.).'.].].]._.^.].].].]._.).k.j.@   *X*X*X*X*X*X*X*X*X*X",
"*X*X*X*X*X*X*X*X*X*X    s R k.b._.].].].~.m.'.].].].~.b.<.E O   *X*X*X*X*X*X*X*X*X*X",
"*X*X*X*X*X*X*X*X*X*X# # l X.7.j.Z.Z./.).m.m.^.^.A.Z.j.j.X.X.; # *X*X*X*X*X*X*X*X*X*X",
"*X*X*X*X*X*X*X*X    9 B s.g.o.E v x k.b.m.m.m.m.F q P R d.g.k B o   *X*X*X*X*X*X*X*X",
"*X*X*X*X*X*X*X*X; # 9 B s.g.X.+.~ / 8.5.5.5.5.5.^ / &.+.d.g.k B $ # *X*X*X*X*X*X*X*X",
"*X*X*X*X*X*XI Y D B B B } g.O.[ L.[.J 0 0 0 0 0 D.{.*.[ f.g.k B B q I Y *X*X*X*X*X*X",
"*X*X*X*X*X*Xr.j.3.Q D B { } O.[ p.Z.( ( D 0 / ( B.N.*.[ } } k B Q Q j.w.*X*X*X*X*X*X",
"*X*X*X*XN h Q.].~.m.T B l | ] ] [ [ K.{.K x H.{.t.[ [ [ | | k B v.b.'.].@.U *X*X*X*X",
"*X*X*X*Xh N Q.].^.^.F 3 - y _ ' ] [ K.{.K B H.{.t.[ ' ' i y 3 > E.^.'.].@.U *X*X*X*X",
"*X*X*X*X@.N Q.].].].w       f l ' [ K.{.K B D.{.t.[ h N O       /.].].].@.U *X*X*X*X",
"*X*X*X*X*X_ j.Y.A.v.3   , 1 8 p r t ~ / 0 > ! / f t p p 6 < o   w.A.Y.Y.@.I *X*X*X*X",
"*X*X*X*X*X*XU U h @.%   A M.:                   o o     Z M.&   g N h l *X*X*X*X*X*X",
"*X*X*X*X*X*X*XU N N +   z Z 4 $ 1 < < < > # < < < < : : A A o   g j h N *X*X*X*X*X*X",
"*X*X*X*X*X*X*X*X*X*X    9 x x B Z M.M.M.V B S M.M.M.V x q B o   *X*X*X*X*X*X*X*X*X*X",
"*X*X*X*X*X*X*X*X*X*X    f _ N l x z z z > > 2 z z z j _ h h X   *X*X*X*X*X*X*X*X*X*X",
"*X*X*X*X*X*X*X*X*X*X    ` [ [ [ *                   ] [ [ [ +   *X*X*X*X*X*X*X*X*X*X",
"*X*X*X*X*X*X*X*X*X*X*X*Xe r r r * *X*X*X*X*X*X*X*X*Xe r r r + *X*X*X*X*X*X*X*X*X*X*X",
"*X*X*X*X*X*X*X*X*X*X*X*X        *X*X*X*X*X*X*X*X*X*X        *X*X*X*X*X*X*X*X*X*X*X*X",
"*X*X*X*X*X*X*X*X*X*X*X*X*X*X*X*X*X*X*X*X*X*X*X*X*X*X*X*X*X*X*X*X*X*X*X*X*X*X*X*X*X*X",
"*X*X*X*X*X*X*X*X*X*X*X*X*X*X*X*X*X*X*X*X*X*X*X*X*X*X*X*X*X*X*X*X*X*X*X*X*X*X*X*X*X*X",
"*X*X*X*X*X*X*X*X*X*X*X*X*X*X*X*X*X*X*X*X*X*X*X*X*X*X*X*X*X*X*X*X*X*X*X*X*X*X*X*X*X*X",
"*X*X*X*X*X*X*X*X*X*X*X*X*X*X*X*X*X*X*X*X*X*X*X*X*X*X*X*X*X*X*X*X*X*X*X*X*X*X*X*X*X*X",
"*X*X*X*X*X*X*X*X*X*X*X*X*X*X*X*X*X*X*X*X*X*X*X*X*X*X*X*X*X*X*X*X*X*X*X*X*X*X*X*X*X*X"
};
